<svg width="184" height="34" viewBox="0 0 184 34" fill="none" xmlns="http://www.w3.org/2000/svg">
<path d="M19.6367 15.2979C20.8555 15.2979 21.4648 15.5771 21.4648 16.1357C21.4648 16.4912 21.2617 17.1344 20.8555 18.0654C20.4492 18.988 20.1107 19.6481 19.8398 20.0459C19.569 20.4437 19.3024 20.6426 19.04 20.6426C18.7777 20.6426 18.4645 20.5368 18.1006 20.3252C17.7367 20.1051 17.3643 19.8682 16.9834 19.6143C16.611 19.3519 16.1328 19.1022 15.5488 18.8652C14.9648 18.6283 14.3893 18.4928 13.8223 18.459C12.9759 21.4889 12.502 23.1647 12.4004 23.4863C12.3073 23.8079 12.1634 24.1338 11.9688 24.4639C11.7741 24.7939 11.5413 25.0648 11.2705 25.2764C10.9997 25.488 10.7204 25.6615 10.4326 25.7969C10.1533 25.9323 9.81055 26.0339 9.4043 26.1016C7.48307 26.3978 5.62109 26.3258 3.81836 25.8857C2.8112 25.6403 2.00716 25.3398 1.40625 24.9844C0.805339 24.6204 0.504883 24.2692 0.504883 23.9307C0.530273 23.736 0.623372 23.5837 0.78418 23.4736C0.936523 23.3551 1.11849 23.2959 1.33008 23.2959C2.10872 23.2959 2.68001 23.1732 3.04395 22.9277C3.41634 22.6738 3.76758 22.2126 4.09766 21.5439C4.42773 20.8669 4.73665 20.1136 5.02441 19.2842C5.32064 18.4548 5.59147 17.693 5.83691 16.999C6.08236 16.305 6.36589 15.5983 6.6875 14.8789C7.38997 13.3301 8.28711 12.2933 9.37891 11.7686C10.4707 11.2438 12.1253 10.9814 14.3428 10.9814C15.6631 10.9814 16.3232 11.2015 16.3232 11.6416C16.3232 11.8109 16.2428 12.0521 16.082 12.3652C15.4473 13.5586 14.8633 15.0186 14.3301 16.7451C15.0495 16.3643 15.8874 16.0299 16.8438 15.7422C17.8086 15.446 18.7396 15.2979 19.6367 15.2979ZM23.5088 12.6572C22.2816 11.5824 20.7835 10.7148 19.0146 10.0547C17.2542 9.38607 15.4769 9.05176 13.6826 9.05176C12.6077 9.05176 11.3128 9.19564 9.79785 9.4834C8.28288 9.7627 7.16146 10.0674 6.43359 10.3975C5.70573 10.7191 5.22754 10.8799 4.99902 10.8799C4.71973 10.8799 4.58008 10.7487 4.58008 10.4863C4.58008 10.2155 4.81283 9.88965 5.27832 9.50879C5.74382 9.12793 6.4209 8.73438 7.30957 8.32812C8.20671 7.92188 9.2181 7.54102 10.3438 7.18555C12.9167 6.38997 15.735 5.99219 18.7988 5.99219C20.7962 5.99219 22.4678 6.07682 23.8135 6.24609C26.3102 6.54232 27.5586 7.01628 27.5586 7.66797C27.5332 8.01497 27.3639 8.59049 27.0508 9.39453C26.7376 10.1986 26.3652 10.9688 25.9336 11.7051C25.502 12.4329 25.1465 12.8392 24.8672 12.9238C24.6895 12.9746 24.4863 13 24.2578 13C24.0378 13 23.7881 12.8857 23.5088 12.6572ZM46.373 22.3818C46.6693 22.3818 46.8174 22.5215 46.8174 22.8008C46.8174 23.0716 46.6143 23.3255 46.208 23.5625C45.8102 23.791 45.3151 24.0407 44.7227 24.3115C44.1302 24.5739 43.3135 24.887 42.2725 25.251C39.8773 26.0889 37.1732 26.5078 34.1602 26.5078C28.4388 26.5078 25.5781 24.7474 25.5781 21.2266C25.5781 19.5085 26.1198 17.985 27.2031 16.6562C28.2949 15.319 29.7549 14.2992 31.583 13.5967C33.4111 12.8857 35.4043 12.5303 37.5625 12.5303C39.7207 12.5303 41.2992 12.8646 42.2979 13.5332C43.305 14.2018 43.8086 15.1201 43.8086 16.2881C43.8086 17.4899 43.3262 18.4717 42.3613 19.2334C41.4049 19.9951 40.1312 20.5622 38.54 20.9346C36.9404 21.307 35.1081 21.5693 33.043 21.7217C33.1784 23.0335 34.1178 23.8503 35.8613 24.1719C36.3099 24.248 36.7839 24.2861 37.2832 24.2861C39.2637 24.2861 42.1201 23.6895 45.8525 22.4961C46.0811 22.4199 46.2546 22.3818 46.373 22.3818ZM33.0557 20.3252C34.5283 19.9189 35.6921 19.2969 36.5469 18.459C37.4017 17.6211 37.8291 16.6097 37.8291 15.4248C37.8291 15.1117 37.7275 14.862 37.5244 14.6758C37.3213 14.4896 37.0124 14.3965 36.5977 14.3965C36.1914 14.3965 35.764 14.5742 35.3154 14.9297C34.8753 15.2852 34.5029 15.7507 34.1982 16.3262C33.555 17.5195 33.1742 18.8525 33.0557 20.3252ZM65.8984 22.3818C66.1947 22.3818 66.3428 22.5215 66.3428 22.8008C66.3428 23.0716 66.1396 23.3255 65.7334 23.5625C65.3356 23.791 64.8405 24.0407 64.248 24.3115C63.6556 24.5739 62.8389 24.887 61.7979 25.251C59.4027 26.0889 56.6986 26.5078 53.6855 26.5078C47.9642 26.5078 45.1035 24.7474 45.1035 21.2266C45.1035 19.5085 45.6452 17.985 46.7285 16.6562C47.8203 15.319 49.2803 14.2992 51.1084 13.5967C52.9365 12.8857 54.9297 12.5303 57.0879 12.5303C59.2461 12.5303 60.8245 12.8646 61.8232 13.5332C62.8304 14.2018 63.334 15.1201 63.334 16.2881C63.334 17.4899 62.8516 18.4717 61.8867 19.2334C60.9303 19.9951 59.6566 20.5622 58.0654 20.9346C56.4658 21.307 54.6335 21.5693 52.5684 21.7217C52.7038 23.0335 53.6432 23.8503 55.3867 24.1719C55.8353 24.248 56.3092 24.2861 56.8086 24.2861C58.7891 24.2861 61.6455 23.6895 65.3779 22.4961C65.6064 22.4199 65.7799 22.3818 65.8984 22.3818ZM52.5811 20.3252C54.0537 19.9189 55.2174 19.2969 56.0723 18.459C56.9271 17.6211 57.3545 16.6097 57.3545 15.4248C57.3545 15.1117 57.2529 14.862 57.0498 14.6758C56.8467 14.4896 56.5378 14.3965 56.123 14.3965C55.7168 14.3965 55.2894 14.5742 54.8408 14.9297C54.4007 15.2852 54.0283 15.7507 53.7236 16.3262C53.0804 17.5195 52.6995 18.8525 52.5811 20.3252ZM70.6465 7.2998L76.8672 7.16016C77.0872 7.16016 77.2523 7.22786 77.3623 7.36328C77.4723 7.49023 77.5273 7.63411 77.5273 7.79492C77.5273 8.68359 76.7148 11.248 75.0898 15.4883C73.4733 19.7285 72.665 22.2253 72.665 22.9785C72.665 23.2917 72.7285 23.5286 72.8555 23.6895C72.9824 23.8418 73.2067 23.918 73.5283 23.918C74.5355 23.918 76.097 23.4525 78.2129 22.5215C78.4245 22.4284 78.6276 22.3818 78.8223 22.3818C79.1693 22.3818 79.3428 22.5173 79.3428 22.7881C79.3428 23.0166 79.1693 23.2536 78.8223 23.499C78.4753 23.7445 77.9971 24.0153 77.3877 24.3115C76.7783 24.6077 76.0378 24.9294 75.166 25.2764C74.2943 25.6234 73.304 25.9154 72.1953 26.1523C71.0951 26.3893 69.9398 26.5078 68.7295 26.5078C67.5192 26.5078 66.5501 26.3428 65.8223 26.0127C65.0944 25.6911 64.7305 25.0944 64.7305 24.2227C64.7305 23.6133 65.5133 21.2223 67.0791 17.0498C67.6631 15.4925 68.2005 13.876 68.6914 12.2002C69.1823 10.516 69.4277 9.25488 69.4277 8.41699L69.415 7.93457C69.415 7.51139 69.8255 7.2998 70.6465 7.2998ZM93.2314 26.5078C90.7516 26.5078 88.4749 26.0677 86.4014 25.1875C85.9697 25.6191 85.4323 25.9027 84.7891 26.0381C84.1543 26.182 83.3037 26.2539 82.2373 26.2539C81.1794 26.2539 80.151 26.1312 79.1523 25.8857C78.1536 25.6403 77.3623 25.3398 76.7783 24.9844C76.1859 24.6289 75.8896 24.2819 75.8896 23.9434C75.8896 23.7487 75.9743 23.5921 76.1436 23.4736C76.3128 23.3551 76.5075 23.2959 76.7275 23.2959C77.5062 23.2959 78.0817 23.1732 78.4541 22.9277C78.835 22.6738 79.1989 22.2083 79.5459 21.5312C79.9014 20.8542 80.2441 20.0755 80.5742 19.1953C80.9043 18.3066 81.209 17.4772 81.4883 16.707C81.776 15.9368 82.0977 15.1582 82.4531 14.3711C83.2402 12.653 84.2262 11.5104 85.4111 10.9434C85.9782 10.6725 86.7188 10.4652 87.6328 10.3213C88.5469 10.1689 89.262 10.0928 89.7783 10.0928C90.3031 10.0928 90.6416 10.1012 90.7939 10.1182C90.9548 10.1266 91.1156 10.152 91.2764 10.1943C91.598 10.279 91.7588 10.4567 91.7588 10.7275C91.7588 10.9137 91.7207 11.0872 91.6445 11.248C91.5768 11.4004 91.3864 11.7305 91.0732 12.2383C90.7601 12.7461 90.3454 13.8083 89.8291 15.4248C91.8942 15.2979 93.4727 14.8704 94.5645 14.1426C95.6562 13.4062 96.2021 12.4668 96.2021 11.3242C96.2021 9.77539 94.8903 8.89518 92.2666 8.68359C91.7334 8.64128 90.9548 8.62012 89.9307 8.62012C88.9066 8.62012 87.7682 8.74284 86.5156 8.98828C85.263 9.22526 84.2812 9.48763 83.5703 9.77539C82.8678 10.0632 82.2331 10.3298 81.666 10.5752C81.099 10.8122 80.735 10.9307 80.5742 10.9307C80.1341 10.9307 79.9141 10.7868 79.9141 10.499C79.9141 10.2028 80.1891 9.85156 80.7393 9.44531C81.2894 9.03906 82.0469 8.63704 83.0117 8.23926C83.985 7.84147 85.0599 7.47331 86.2363 7.13477C88.8939 6.37305 91.6403 5.99219 94.4756 5.99219C97.3109 5.99219 99.4606 6.43652 100.925 7.3252C102.397 8.2054 103.134 9.37337 103.134 10.8291C103.134 12.2848 102.402 13.4951 100.938 14.46C99.4818 15.4248 97.4801 15.958 94.9326 16.0596C96.5661 16.0765 98.0684 16.4701 99.4395 17.2402C100.1 17.6042 100.637 18.0824 101.052 18.6748C101.466 19.2673 101.674 19.9528 101.674 20.7314C101.674 21.5101 101.509 22.2422 101.179 22.9277C100.857 23.6048 100.425 24.1634 99.8838 24.6035C99.3506 25.0436 98.7116 25.4076 97.9668 25.6953C96.6042 26.237 95.0257 26.5078 93.2314 26.5078ZM89.4736 16.542C89.3128 17.0752 88.9954 18.1543 88.5215 19.7793C88.0475 21.3958 87.7174 22.4792 87.5312 23.0293C87.3451 23.571 87.2477 23.8503 87.2393 23.8672C87.5101 23.901 87.9417 23.918 88.5342 23.918C89.1351 23.918 89.8037 23.8376 90.54 23.6768C91.2848 23.5075 91.9492 23.2536 92.5332 22.915C93.1257 22.5765 93.5869 22.1195 93.917 21.5439C94.2555 20.9684 94.4248 20.2702 94.4248 19.4492C94.4248 18.6283 93.9466 17.9469 92.9902 17.4053C92.0339 16.8636 90.8617 16.5758 89.4736 16.542ZM124.398 22.3818C124.695 22.3818 124.843 22.5215 124.843 22.8008C124.843 23.0716 124.64 23.3255 124.233 23.5625C123.836 23.791 123.34 24.0407 122.748 24.3115C122.156 24.5739 121.339 24.887 120.298 25.251C117.903 26.0889 115.199 26.5078 112.186 26.5078C106.464 26.5078 103.604 24.7474 103.604 21.2266C103.604 19.5085 104.145 17.985 105.229 16.6562C106.32 15.319 107.78 14.2992 109.608 13.5967C111.437 12.8857 113.43 12.5303 115.588 12.5303C117.746 12.5303 119.325 12.8646 120.323 13.5332C121.33 14.2018 121.834 15.1201 121.834 16.2881C121.834 17.4899 121.352 18.4717 120.387 19.2334C119.43 19.9951 118.157 20.5622 116.565 20.9346C114.966 21.307 113.133 21.5693 111.068 21.7217C111.204 23.0335 112.143 23.8503 113.887 24.1719C114.335 24.248 114.809 24.2861 115.309 24.2861C117.289 24.2861 120.146 23.6895 123.878 22.4961C124.106 22.4199 124.28 22.3818 124.398 22.3818ZM111.081 20.3252C112.554 19.9189 113.717 19.2969 114.572 18.459C115.427 17.6211 115.854 16.6097 115.854 15.4248C115.854 15.1117 115.753 14.862 115.55 14.6758C115.347 14.4896 115.038 14.3965 114.623 14.3965C114.217 14.3965 113.789 14.5742 113.341 14.9297C112.901 15.2852 112.528 15.7507 112.224 16.3262C111.58 17.5195 111.2 18.8525 111.081 20.3252ZM132.384 23.2832C133.975 23.2832 135.304 22.0645 136.37 19.627C136.861 18.5098 137.106 17.6042 137.106 16.9102C137.106 16.2161 136.988 15.738 136.751 15.4756C136.522 15.2132 136.065 15.082 135.38 15.082C134.703 15.082 133.966 15.3994 133.171 16.0342C132.384 16.6605 131.749 17.4518 131.267 18.4082C130.784 19.3646 130.543 20.2279 130.543 20.998C130.543 21.7598 130.712 22.3311 131.051 22.7119C131.389 23.0928 131.834 23.2832 132.384 23.2832ZM138.985 12.5303L144.8 12.7969C145.02 12.7969 145.185 12.8646 145.295 13C145.405 13.127 145.46 13.2708 145.46 13.4316C145.46 14.0495 145.202 15.0355 144.686 16.3896C144.178 17.7354 143.666 19.0726 143.149 20.4014C142.642 21.7217 142.388 22.5977 142.388 23.0293C142.388 23.4525 142.451 23.7233 142.578 23.8418C142.714 23.9603 142.967 24.0195 143.34 24.0195C143.712 24.0195 144.389 23.8418 145.371 23.4863C146.361 23.1224 147.03 22.8473 147.377 22.6611C147.732 22.4749 148.003 22.3818 148.189 22.3818C148.52 22.3818 148.685 22.5299 148.685 22.8262C148.685 23.4525 147.415 24.2734 144.876 25.2891C144.021 25.6361 142.989 25.9238 141.778 26.1523C140.576 26.3893 139.354 26.5078 138.109 26.5078C136.036 26.5078 134.787 25.8477 134.364 24.5273C133.044 25.8477 131.267 26.5078 129.032 26.5078C127.5 26.5078 126.205 26.1396 125.147 25.4033C123.996 24.5993 123.421 23.334 123.421 21.6074C123.421 19.7878 123.958 18.112 125.033 16.5801C126.21 14.8789 127.784 13.7067 129.756 13.0635C130.848 12.708 132.02 12.5303 133.272 12.5303C135.194 12.5303 136.688 13.0042 137.754 13.9521C137.762 13.9014 137.767 13.821 137.767 13.7109L137.754 13.165C137.754 12.7419 138.164 12.5303 138.985 12.5303ZM158.854 13.0762L162.192 12.6445C162.819 12.6445 163.132 12.89 163.132 13.3809C163.132 13.8717 162.836 14.1807 162.243 14.3076C161.651 14.4261 160.313 14.5869 158.231 14.79C157.944 15.5433 157.512 16.5885 156.937 17.9258C155.76 20.668 155.172 22.3141 155.172 22.8643C155.172 23.4652 155.544 23.7656 156.289 23.7656C158.693 23.7656 160.851 23.3636 162.764 22.5596C163.043 22.4411 163.263 22.3818 163.424 22.3818C163.737 22.3818 163.894 22.5215 163.894 22.8008C163.894 23.0801 163.69 23.3551 163.284 23.626C162.04 24.4469 160.165 25.1325 157.66 25.6826C155.155 26.2327 152.844 26.5078 150.729 26.5078C149.527 26.5078 148.608 26.3216 147.974 25.9492C147.339 25.5684 147.021 25.0479 147.021 24.3877C147.021 23.7191 147.462 22.4707 148.342 20.6426C149.332 18.5944 150.043 16.7959 150.475 15.2471C149.95 15.2725 149.586 15.2852 149.383 15.2852C148.883 15.2852 148.634 15.082 148.634 14.6758C148.634 14.3796 148.714 14.1807 148.875 14.0791C149.036 13.9775 149.201 13.9056 149.37 13.8633C149.548 13.821 149.696 13.7956 149.814 13.7871C149.941 13.7702 150.115 13.7533 150.335 13.7363C150.555 13.7194 150.716 13.7067 150.817 13.6982C150.927 13.055 150.982 12.4499 150.982 11.8828L150.97 11.4004C150.97 11.0195 151.452 10.7614 152.417 10.626C152.739 10.5837 153.75 10.3721 155.451 9.99121C157.152 9.61035 158.193 9.41992 158.574 9.41992C159.184 9.41992 159.488 9.63151 159.488 10.0547C159.488 10.7826 159.277 11.7897 158.854 13.0762ZM170.66 26.4951C170.449 26.5036 170.135 26.5078 169.721 26.5078C167.774 26.5078 165.938 26.3258 164.211 25.9619C162.493 25.598 161.477 25.1748 161.164 24.6924C161.062 24.54 161.012 24.3496 161.012 24.1211C161.012 23.8926 161.283 23.5286 161.824 23.0293C162.366 22.5215 162.738 22.2676 162.941 22.2676C163.145 22.2676 163.352 22.3438 163.563 22.4961C163.784 22.64 164.025 22.8177 164.287 23.0293C164.549 23.2409 164.841 23.4525 165.163 23.6641C165.933 24.1719 166.86 24.4258 167.943 24.4258C168.375 24.4258 168.722 24.3158 168.984 24.0957C169.255 23.8757 169.391 23.6006 169.391 23.2705C169.391 22.932 169.276 22.64 169.048 22.3945C168.828 22.1491 168.536 21.9375 168.172 21.7598C167.816 21.5736 167.423 21.3916 166.991 21.2139C166.56 21.0277 166.124 20.8288 165.684 20.6172C165.252 20.3971 164.854 20.1602 164.49 19.9062C163.686 19.3392 163.284 18.6367 163.284 17.7988C163.284 16.9525 163.538 16.2204 164.046 15.6025C164.562 14.9847 165.21 14.4896 165.988 14.1172C166.767 13.7448 167.647 13.4316 168.629 13.1777C170.355 12.7461 171.985 12.5303 173.517 12.5303C175.057 12.5303 176.487 12.6107 177.808 12.7715C179.136 12.9238 180.05 13.1523 180.55 13.457C180.685 13.5332 180.753 13.7363 180.753 14.0664C180.753 14.388 180.639 14.8535 180.41 15.4629C180.182 16.0638 179.89 16.6224 179.534 17.1387C179.187 17.6465 178.874 17.9004 178.595 17.9004C178.485 17.9004 178.392 17.8538 178.315 17.7607C177.511 16.7959 176.729 16.0553 175.967 15.5391C175.214 15.0143 174.393 14.752 173.504 14.752C172.827 14.752 172.34 14.8916 172.044 15.1709C171.756 15.4417 171.612 15.7253 171.612 16.0215C171.612 16.3177 171.773 16.6012 172.095 16.8721C172.425 17.1429 172.831 17.3883 173.313 17.6084C173.804 17.8285 174.333 18.0866 174.9 18.3828C175.476 18.6706 176.005 18.9668 176.487 19.2715C176.978 19.5677 177.384 19.9443 177.706 20.4014C178.036 20.8499 178.201 21.417 178.201 22.1025C178.201 22.7881 177.951 23.4567 177.452 24.1084C179.551 23.6852 181.193 23.1647 182.378 22.5469C182.581 22.4368 182.755 22.3818 182.898 22.3818C183.22 22.3818 183.381 22.5426 183.381 22.8643C183.381 23.1351 183.216 23.3848 182.886 23.6133C182.556 23.8333 182.01 24.1042 181.248 24.4258C180.486 24.7389 179.581 25.0563 178.531 25.3779C176.085 26.1227 173.462 26.4951 170.66 26.4951Z" fill="black"/>
</svg>
