<svg width="32" height="32" viewBox="0 0 32 32" fill="none" xmlns="http://www.w3.org/2000/svg">
<mask id="mask0_63_238" style="mask-type:alpha" maskUnits="userSpaceOnUse" x="0" y="0" width="32" height="32">
<rect width="32" height="32" fill="#D9D9D9"/>
</mask>
<g mask="url(#mask0_63_238)">
<path opacity="0.9" fill-rule="evenodd" clip-rule="evenodd" d="M8.07692 10.6154C8.07692 9.72449 8.71405 8.96108 9.59057 8.80171L23.4864 6.27521C24.2745 6.13191 25 6.73739 25 7.53846V12.1538V21.3846C25 23.084 23.278 24.4615 21.1538 24.4615C19.0297 24.4615 17.3077 23.084 17.3077 21.3846C17.3077 19.896 18.629 18.6543 20.3846 18.3692V12.993L12.6923 14.3916V22.9231C12.6923 24.6224 10.9703 26 8.84615 26C6.72198 26 5 24.6224 5 22.9231C5 21.4345 6.32135 20.1928 8.07692 19.9077V15.2308V10.6154Z" fill="white"/>
</g>
</svg>
