<svg width="20" height="20" viewBox="0 0 20 20" fill="none" xmlns="http://www.w3.org/2000/svg">
<path opacity="0.8" fill-rule="evenodd" clip-rule="evenodd" d="M3.07692 4.61538C3.07692 3.72449 3.71405 2.96108 4.59057 2.80171L18.4864 0.275208C19.2745 0.131909 20 0.737392 20 1.53846V6.15385V15.3846C20 17.084 18.278 18.4615 16.1538 18.4615C14.0297 18.4615 12.3077 17.084 12.3077 15.3846C12.3077 13.896 13.629 12.6543 15.3846 12.3692V6.99301L7.69231 8.39161V16.9231C7.69231 18.6224 5.97033 20 3.84615 20C1.72198 20 0 18.6224 0 16.9231C0 15.4345 1.32135 14.1928 3.07692 13.9077V9.23077V4.61538Z" fill="#4D4D4D"/>
</svg>
